nColumns=28
nRows=40
DataType=double
version=3
OpenSimVersion=4.1
endheader
time	ground_force_1_vx	ground_force_1_vy	ground_force_1_vz	ground_force_1_px	ground_force_1_py	ground_force_1_pz	ground_force_1_mx	ground_force_1_my	ground_force_1_mz	ground_force_2_vx	ground_force_2_vy	ground_force_2_vz	ground_force_2_px	ground_force_2_py	ground_force_2_pz	ground_force_2_mx	ground_force_2_my	ground_force_2_mz	ground_force_3_vx	ground_force_3_vy	ground_force_3_vz	ground_force_3_px	ground_force_3_py	ground_force_3_pz	ground_force_3_mx	ground_force_3_my	ground_force_3_mz
0	-0.762953	-1.83105	-0.305147	0.3025	3.35842e-17	0.051	4.99749e-17	-0.450134	-5.54833e-33	-11.4349	267.603	10.7034	0.38755	4.30266e-17	1.08274	6.26727e-18	-0.0564506	-6.95807e-34	11.8779	377.862	-7.78444	0.312517	3.46964e-17	1.33759	4.60473e-16	-4.14757	-5.11227e-32
0.005	-0.915537	-1.52587	2.6134e-05	0.4036	4.48086e-17	0.06	5.48877e-17	-0.494385	-6.09376e-33	-10.9773	267.604	10.3981	0.388073	4.30848e-17	1.08273	2.86678e-17	-0.258216	-3.18276e-33	12.3372	376.947	-7.78758	0.312069	3.46466e-17	1.33717	4.81091e-16	-4.33328	-5.34118e-32
0.01	-0.915542	-1.83105	-0.457734	0.336333	3.73405e-17	0.0515	5.75982e-17	-0.518799	2.84217e-17	-10.5194	267.604	10.7031	0.387057	4.2972e-17	1.08308	1.52408e-18	-0.0137277	-1.69207e-34	12.032	376.947	-7.78767	0.313521	3.48079e-17	1.33766	4.73893e-16	-4.26845	-5.26127e-32
0.015	-1.3733	-1.52587	2.97085e-05	0.3654	4.05675e-17	0.06	5.69206e-17	-0.512695	-6.31946e-33	-9.75908	269.742	10.2501	0.384066	4.26398e-17	1.08235	4.52396e-17	-0.407482	-5.02261e-33	12.3377	376.642	-7.78865	0.312524	3.46972e-17	1.33727	4.66454e-16	-4.20145	-5.17868e-32
0.02	-1.06812	-0.610349	-0.30516	0.8105	8.99836e-17	-0.597	1.47384e-16	-1.32751	-1.63629e-32	-10.5199	267.91	10.5513	0.383769	4.26069e-17	1.08322	8.15872e-18	-0.0734872	-9.058e-34	12.0329	376.336	-7.78983	0.312246	3.46662e-17	1.33713	4.64236e-16	-4.18147	-5.15405e-32
0.025	-0.762954	-1.83105	-0.305146	0.3025	3.35842e-17	0.001	6.43745e-17	-0.579834	-7.14701e-33	-9.75821	268.827	10.0954	0.385714	4.28229e-17	1.08328	-7.25319e-15	-0.20511	8.05265e-31	12.4897	376.949	-8.09259	0.312071	3.46469e-17	1.33717	7.75027e-15	-4.27225	-8.60453e-31
0.03	-0.610362	-1.52587	2.4615e-05	0.3624	4.02345e-17	-4.02345e-17	4.57398e-17	-0.411987	-5.07814e-33	-8.84276	268.828	10.0952	0.384713	4.27117e-17	1.08294	2.69195e-17	-0.242469	-2.98866e-33	12.4895	376.948	-7.78736	0.312436	3.46873e-17	1.33741	-6.80471e-15	-4.24464	7.55474e-31
0.035	-0.915539	-1.2207	-0.305153	0.4545	5.04596e-17	-0.0735	7.708e-17	-0.694275	-8.5576e-33	-8.99515	268.523	9.94196	0.385942	4.28482e-17	1.08416	4.74723e-17	-0.427593	-5.27049e-33	13.0987	377.559	-7.78487	0.312264	3.46682e-17	1.33745	4.74616e-16	-4.27497	-5.2693e-32
0.04	-0.915542	-1.83105	3.16398e-05	0.336333	3.73405e-17	0.1	4.06576e-17	-0.366211	2.84217e-17	-9.60652	269.438	10.2496	0.385297	4.27765e-17	1.08254	3.14601e-17	-0.283368	-3.49278e-33	13.0977	378.172	-8.39294	0.312082	3.46481e-17	1.33772	4.67193e-16	-4.2081	-5.18688e-32
0.045	-1.06813	-1.22069	2.50119e-05	0.35525	3.94407e-17	-0.075	7.49624e-17	-0.675201	-8.3225e-33	-9.30083	268.828	10.0955	0.385724	4.2824e-17	1.0826	3.24516e-17	-0.292298	-3.60286e-33	12.9448	378.17	-7.93515	0.311717	3.46075e-17	1.33749	4.637e-16	-4.17664	-5.14811e-32
0.05	-0.762961	-2.13623	-0.457728	0.259286	2.87865e-17	0.129857	4.28357e-17	-0.385829	-4.75571e-33	-9.9121	269.439	9.79202	0.383251	4.25495e-17	1.08253	1.41156e-17	-0.127142	-1.56715e-33	13.4031	377.868	-8.39376	0.311814	3.46183e-17	1.33685	4.74927e-16	-4.27776	-5.27275e-32
0.055	-0.762961	-1.83105	-0.61032	0.3025	3.35842e-17	0.102	4.40457e-17	-0.396729	-4.89006e-33	-9.60559	268.218	10.0943	0.38614	4.28701e-17	1.08403	9.31158e-18	-0.0838713	-1.03379e-33	13.8594	378.477	-7.78094	0.313093	3.47603e-17	1.33763	4.61045e-16	-4.15273	-5.11863e-32
0.06	-0.762954	-1.2207	-0.305152	0.35375	3.92741e-17	0.0015	6.09864e-17	-0.549316	-6.77085e-33	-8.99579	268.524	9.94228	0.387988	4.30753e-17	1.08348	2.31471e-17	-0.208491	-2.56984e-33	13.4001	379.394	-8.38803	0.311726	3.46086e-17	1.33852	5.00298e-16	-4.50628	-5.55442e-32
0.065	-0.762964	-2.13622	-0.305138	0.316429	3.51306e-17	0.0865714	5.75982e-17	-0.518799	-6.39469e-33	-9.9117	268.525	9.33233	0.386433	4.29027e-17	1.08313	3.49719e-17	-0.314999	-3.88266e-33	13.8596	378.174	-8.23958	0.312094	3.46494e-17	1.33724	4.87971e-16	-4.39525	-5.41757e-32
0.07	-0.457781	-1.52587	2.66767e-05	0.3618	4.01679e-17	0.12	3.45589e-17	-0.311279	2.84217e-17	-9.75872	267.915	9.02576	0.386861	4.29502e-17	1.08489	7.25313e-17	-0.653304	-8.05259e-33	13.7057	378.784	-8.2373	0.311186	3.45486e-17	1.33752	4.98014e-16	-4.48572	-5.52907e-32
0.075	-0.91554	-0.915515	2.20225e-05	0.406	4.50751e-17	-0.1	6.60686e-17	-0.595093	-7.33508e-33	-9.9115	267.915	9.02591	0.388395	4.31205e-17	1.08421	3.83075e-17	-0.345043	-4.25299e-33	14.1627	379.091	-8.38848	0.311104	3.45395e-17	1.3379	4.83991e-16	-4.35941	-5.37338e-32
0.08	-0.76296	-1.52586	3.04815e-05	0.363	4.03011e-17	-4.03011e-17	5.59042e-17	-0.50354	-6.20661e-33	-10.217	267.916	8.72095	0.388901	4.31767e-17	1.08488	2.22071e-17	-0.200024	-2.46549e-33	14.0109	378.48	-8.3906	0.312369	3.468e-17	1.33738	4.95072e-16	-4.45921	-5.4964e-32
0.085	-0.915546	-1.22069	2.7777e-05	0.3545	3.93574e-17	-3.93574e-17	4.57398e-17	-0.411987	-5.07814e-33	-11.2859	268.221	8.1118	0.388662	4.31502e-17	1.08501	2.14649e-17	-0.193339	-2.38308e-33	13.8574	378.785	-8.2368	0.311189	3.45489e-17	1.33776	4.95467e-16	-4.46277	-5.50079e-32
0.09	-0.610376	-1.2207	-0.610325	0.353	3.91909e-17	0.078	4.57398e-17	-0.411987	-5.07814e-33	-10.6751	267.612	8.11026	0.389619	4.32564e-17	1.08542	5.52001e-17	-0.497198	-6.12844e-33	14.3143	379.091	-8.23537	0.311106	3.45397e-17	1.33766	4.94029e-16	-4.44982	-5.48482e-32
0.095	-0.305204	-1.83104	3.39172e-05	0.301	3.34177e-17	0.1	3.21873e-17	-0.289917	-3.5735e-33	-11.4394	268.527	7.96022	0.389978	4.32963e-17	1.08582	6.52889e-17	-0.58807	-7.24853e-33	14.1607	379.394	-7.62379	0.310652	3.44894e-17	1.33708	4.72792e-16	-4.25853	-5.24904e-32
0.1	-0.762955	-0.915507	0.305199	0.538333	5.9767e-17	-0.102	4.79985e-17	-0.432332	-5.32891e-33	-11.7459	269.443	7.81003	0.391365	4.34502e-17	1.08487	6.25231e-17	-0.563158	-6.94146e-33	14.1607	379.088	-7.31953	0.311104	3.45395e-17	1.33695	4.69256e-16	-4.22668	-5.20979e-32
0.105	-0.610381	-1.52586	-0.305143	0.3224	3.57936e-17	0.0012	4.98055e-17	-0.448608	-5.52953e-33	-11.8981	268.833	7.65619	0.391796	4.34981e-17	1.08493	6.99422e-17	-0.629984	7.27596e-15	14.1598	379.394	-7.47082	0.311377	3.45697e-17	1.33709	4.79256e-16	-4.31675	-5.32081e-32
0.11	-0.457782	-0.915513	2.12046e-05	0.336333	3.73405e-17	-0.1	4.06576e-17	-0.366211	1.42109e-17	-12.9657	268.221	7.96045	0.394256	4.37712e-17	1.08534	2.43963e-17	-0.219742	-2.70853e-33	14.1589	379.7	-7.46951	0.310925	3.45196e-17	1.33674	4.85873e-16	-4.37635	-5.39427e-32
0.115	-0.4578	-1.52586	-0.610318	0.3218	3.5727e-17	0.0024	1.10715e-16	-0.485229	-1.22918e-32	-13.2713	268.222	7.80812	0.392713	4.35999e-17	1.08637	5.18627e-17	-0.467138	-5.75792e-33	14.0049	380.311	-7.46714	0.311467	3.45798e-17	1.33678	4.74174e-16	-4.27098	-5.26439e-32
0.12	-0.45779	-1.22068	2.8273e-05	0.35225	3.91076e-17	-3.91076e-17	4.06576e-17	-0.366211	-4.5139e-33	-13.8806	267.001	7.65302	0.396666	4.40388e-17	1.08719	4.62102e-17	-0.416225	-5.13037e-33	14.0047	380.004	-6.85767	0.311557	3.45897e-17	1.33689	4.74506e-16	-4.27397	-5.26807e-32
0.125	-0.610383	-1.22068	-0.305145	0.353	3.91909e-17	0.0015	4.57398e-17	-0.411987	-5.07814e-33	-14.3385	266.697	7.04228	0.398941	4.42913e-17	1.08738	7.12787e-17	-0.642021	-7.91352e-33	14.1553	380.92	-7.00666	0.311291	3.45602e-17	1.33683	4.80716e-16	-4.3299	-5.33702e-32
0.13	-0.305198	-0.91551	2.20302e-05	0.202	2.24265e-17	-0.3	4.57398e-17	-0.411987	-5.07814e-33	-14.6437	266.089	6.12558	0.400938	4.45131e-17	1.08778	9.11299e-17	-0.820825	-1.01174e-32	13.6971	380.92	-7.00658	0.310923	3.45194e-17	1.33635	4.80836e-16	-4.33098	-5.33835e-32
0.135	-0.610384	-1.22068	3.24242e-05	0.303	3.36398e-17	-0.075	5.0822e-17	-0.457764	-5.64237e-33	-15.5589	265.478	6.12464	0.402931	4.47343e-17	1.08716	9.53525e-17	-0.858859	-1.05863e-32	13.8476	381.836	-7.00296	0.312098	3.46499e-17	1.33653	4.5639e-16	-4.1108	-5.06695e-32
0.14	-0.610393	-1.52584	3.99568e-05	0.3224	3.57936e-17	-3.57936e-17	5.0822e-17	-0.457764	-5.64237e-33	-16.016	264.562	6.12282	0.404142	4.48688e-17	1.08813	7.60864e-17	-0.685326	-8.44729e-33	13.9996	381.836	-6.85005	0.31246	3.46901e-17	1.33629	4.66727e-16	-4.20391	-5.18171e-32
0.145	-0.762989	-1.52585	-0.45772	0.363	4.03011e-17	0.1218	5.38713e-17	-0.485229	-5.98092e-33	-17.085	264.867	5.66634	0.406475	4.51278e-17	1.08757	7.98602e-17	-0.719317	-8.86626e-33	13.6919	383.058	-6.99806	0.312097	3.46498e-17	1.33661	4.89962e-16	-4.41319	-5.43967e-32
0.15	-0.610411	-1.83101	-0.457714	0.368667	4.09302e-17	0.0515	5.0822e-17	-0.457764	-5.64237e-33	-17.8464	263.34	6.12096	0.408175	4.53165e-17	1.08932	5.71497e-17	-0.514759	-6.34489e-33	13.3876	382.141	-6.69603	0.311283	3.45593e-17	1.33643	4.75825e-16	-4.28585	-5.28272e-32
0.155	-0.915569	-0.915497	-0.457729	0.539333	5.9878e-17	0.003	7.28448e-17	-0.656128	-8.0874e-33	-18.0001	263.95	6.12265	0.408731	4.53782e-17	1.08751	7.25109e-17	-0.65312	-8.05033e-33	13.5385	382.751	-6.3883	0.311825	3.46196e-17	1.33624	4.69258e-16	-4.2267	-5.20981e-32
0.16	-0.762984	-1.22066	3.94608e-05	0.30375	3.3723e-17	-0.15	6.35275e-17	-0.572205	-7.05297e-33	-18.4574	263.339	6.42675	0.410247	4.55465e-17	1.08759	7.03234e-17	-0.633417	-7.80746e-33	13.844	382.141	-6.08493	0.312368	3.46798e-17	1.33572	4.66795e-16	-4.20452	-5.18247e-32
0.165	-0.457843	-2.13618	-0.61029	0.287	3.18634e-17	0.130286	3.99316e-17	-0.359671	-4.43329e-33	-19.3748	264.559	6.43017	0.408737	4.53789e-17	1.08745	6.83928e-17	-0.616027	-7.59312e-33	13.8435	382.142	-6.3898	0.312368	3.46798e-17	1.33548	4.62586e-16	-4.1666	-5.13573e-32
0.17	-0.763022	-2.13617	-0.457698	0.287857	3.19586e-17	0.087	4.79179e-17	-0.431606	-5.31995e-33	-19.2212	263.339	6.58003	0.410751	4.56025e-17	1.08551	5.54213e-17	-0.49919	-6.153e-33	13.8431	381.835	-5.62766	0.312458	3.46898e-17	1.33583	4.6895e-16	-4.22392	-5.20639e-32
0.175	-0.457821	-1.52583	4.69732e-05	0.3218	3.5727e-17	0.06	3.25261e-17	-0.292969	-3.61112e-33	-19.8324	263.644	6.4286	0.412576	4.58052e-17	1.08703	5.75924e-17	-0.518746	-6.39404e-33	13.8424	381.836	-5.62734	0.312818	3.47297e-17	1.33583	4.6923e-16	-4.22645	-5.2095e-32
0.18	-0.763012	-1.52583	-0.610297	0.323	3.58602e-17	0.1224	4.87891e-17	-0.439453	-5.41668e-33	-19.8322	263.337	7.19105	0.412301	4.57746e-17	1.08796	5.30333e-17	-0.477681	-5.88788e-33	13.8424	381.532	-5.7807	0.312908	3.47398e-17	1.33569	4.70984e-16	-4.24224	-5.22897e-32
0.185	-0.763007	-1.52582	5.39276e-05	0.283	3.14193e-17	-3.14193e-17	5.0822e-17	-0.457764	-5.64237e-33	-20.1382	263.643	7.19212	0.412049	4.57466e-17	1.08601	5.89629e-17	-0.531091	-6.5462e-33	13.8433	380.617	-5.93628	0.31318	3.47699e-17	1.33526	4.57188e-16	-4.11798	-5.07581e-32
0.19	-0.763015	-1.52582	-0.457707	0.363	4.03011e-17	0.1218	4.87891e-17	-0.439453	-5.41668e-33	-19.6812	263.948	7.49809	0.411814	4.57205e-17	1.08512	7.06543e-17	-0.636397	-7.8442e-33	13.3842	380.921	-5.62981	0.312361	3.4679e-17	1.33541	4.7712e-16	-4.29751	-5.29709e-32
0.195	-0.762968	3.16203e-05	1.99557e-05	0.2	2.22045e-17	0.3	-0.549316	-0.183105	-0.309753	-19.682	264.254	7.49906	0.41105	4.56357e-17	1.08595	8.46925e-17	-0.762843	-9.40276e-33	13.8423	380.312	-5.47892	0.313632	3.48201e-17	1.33537	4.51953e-16	-4.07083	-5.01768e-32
